<?xml version="1.0" standalone="no"?>
<!DOCTYPE svg PUBLIC "-//W3C//DTD SVG 20010904//EN"
 "http://www.w3.org/TR/2001/REC-SVG-20010904/DTD/svg10.dtd">
<svg version="1.0" xmlns="http://www.w3.org/2000/svg"
 width="500.000000pt" height="500.000000pt" viewBox="0 0 500.000000 500.000000"
 preserveAspectRatio="xMidYMid meet">
<metadata>
Created by potrace 1.14, written by Peter Selinger 2001-2017
</metadata>
<g transform="translate(0.000000,500.000000) scale(0.100000,-0.100000)"
fill="#000000" stroke="none">
<path d="M0 2500 l0 -2500 2500 0 2500 0 0 2500 0 2500 -2500 0 -2500 0 0
-2500z m2480 1273 c-49 -155 -174 -308 -438 -542 -46 -41 -96 -96 -113 -125
-17 -28 -27 -40 -24 -26 4 14 20 45 36 70 25 40 27 46 11 52 -44 17 -70 8
-112 -39 l-42 -48 16 39 c44 107 166 236 362 383 124 94 233 196 287 270 17
24 32 41 35 39 2 -3 -6 -35 -18 -73z m127 -37 c68 -75 111 -113 259 -224 131
-99 250 -218 301 -304 49 -82 50 -98 4 -45 -42 47 -60 54 -108 41 l-23 -6 20
-29 c24 -32 64 -119 58 -124 -2 -2 -15 19 -28 46 -17 37 -51 76 -119 137 -146
131 -284 274 -335 345 -50 70 -99 165 -110 212 -4 17 -9 39 -12 50 -4 15 1 12
18 -10 13 -16 47 -56 75 -89z m-475 -739 c8 -133 54 -214 153 -266 62 -33 109
-27 163 22 l22 21 -26 21 -26 20 39 80 c21 44 41 82 45 85 3 3 26 -34 50 -81
l45 -87 -29 -17 c-29 -16 -29 -17 -11 -37 46 -51 102 -60 169 -27 95 45 154
153 154 279 l0 70 29 0 c16 0 36 2 44 6 16 6 50 -65 62 -128 l7 -37 49 6 49 6
0 -35 c0 -48 -27 -134 -60 -193 -40 -70 -122 -159 -167 -180 -55 -27 -160 -24
-207 4 -89 55 -148 177 -175 359 -8 52 -9 54 -10 16 -2 -58 -35 -183 -65 -242
-32 -63 -68 -105 -112 -133 -46 -28 -152 -31 -206 -5 -103 49 -228 254 -228
373 l0 36 49 -6 48 -6 12 52 c6 29 20 66 30 83 16 27 22 29 58 26 l41 -4 4
-81z m378 -370 c0 -7 20 -55 45 -105 l44 -92 -35 0 -35 0 35 -55 35 -54 -149
-3 c-97 -2 -146 0 -142 7 3 6 25 33 48 61 46 57 119 184 129 227 7 28 25 38
25 14z m-421 -553 c53 -11 81 -46 81 -102 0 -34 -6 -57 -20 -75 -11 -14 -20
-28 -20 -31 0 -3 14 -29 32 -57 l32 -52 -28 -24 c-48 -41 -75 -29 -105 44 -14
35 -29 63 -33 63 -4 0 -8 -28 -10 -62 l-3 -63 -47 -3 -48 -3 0 185 0 186 69 0
c38 0 82 -3 100 -6z m471 -47 l0 -54 44 1 c30 1 50 -5 65 -18 19 -17 21 -30
21 -133 l0 -113 -40 0 -40 0 0 89 c0 91 -5 106 -34 95 -13 -5 -16 -23 -16 -95
l0 -89 -40 0 -40 0 0 185 0 185 40 0 40 0 0 -53z m268 16 c-3 -38 -3 -38 -50
-41 l-48 -3 0 40 0 41 51 0 50 0 -3 -37z m-460 -74 c36 -12 52 -49 52 -119 0
-33 5 -50 15 -54 9 -3 15 -19 15 -41 0 -42 -19 -54 -64 -37 -20 8 -34 8 -40 2
-6 -6 -30 -10 -53 -10 -35 0 -49 6 -68 26 -55 59 -16 144 65 144 30 0 40 4 40
16 0 12 -9 15 -41 13 -43 -4 -65 14 -53 45 9 24 81 33 132 15z m675 0 l37 -10
0 -174 0 -175 -40 0 -40 0 0 50 c0 49 -1 50 -30 50 -73 0 -110 45 -110 131 0
110 71 160 183 128z m-213 -129 l0 -130 -50 0 -50 0 0 130 0 130 50 0 50 0 0
-130z m-755 -386 c9 -4 21 -18 27 -33 l11 -26 10 27 c12 30 43 46 58 31 6 -6
9 -41 7 -79 -2 -53 -6 -69 -18 -69 -11 0 -16 14 -20 50 l-5 50 -13 -43 c-15
-50 -30 -50 -48 -1 l-12 34 -1 -42 c-1 -44 -17 -65 -32 -42 -13 21 -11 123 3
137 14 14 12 14 33 6z m251 -2 c33 -22 50 -152 20 -152 -7 0 -16 9 -19 20 -3
11 -12 20 -21 20 -8 0 -20 -9 -26 -20 -18 -34 -30 -22 -30 31 0 65 22 109 55
109 6 0 15 -4 21 -8z m164 -66 c0 -69 -10 -86 -52 -86 -33 0 -39 25 -8 33 17
4 20 14 20 54 0 47 14 78 32 67 4 -3 8 -33 8 -68z m148 57 c2 -8 -6 -13 -22
-13 -19 0 -26 -5 -26 -20 0 -13 7 -20 20 -20 11 0 20 -5 20 -11 0 -6 -9 -13
-20 -16 -29 -8 -24 -31 8 -35 43 -5 27 -23 -20 -23 l-43 0 -3 64 c-2 35 -1 70
2 78 7 18 78 14 84 -4z m146 11 c22 -9 10 -24 -20 -24 -17 0 -24 -5 -24 -20 0
-13 7 -20 19 -20 30 0 35 -19 6 -26 -32 -8 -32 -32 0 -36 42 -5 28 -23 -17
-23 l-43 0 -3 69 c-3 73 3 86 45 86 12 0 28 -3 37 -6z m174 -22 c6 -8 12 -33
12 -54 0 -52 -29 -80 -78 -76 l-37 3 -3 69 c-2 48 1 72 10 78 19 12 81 0 96
-20z"/>
<path d="M2020 1949 c0 -36 2 -40 23 -37 39 5 31 78 -9 78 -10 0 -14 -13 -14
-41z"/>
<path d="M2294 1815 c-7 -18 3 -35 22 -35 8 0 14 10 14 25 0 27 -27 35 -36 10z"/>
<path d="M2954 1876 c-3 -8 -4 -29 -2 -48 2 -25 8 -34 26 -36 20 -3 22 0 22
47 0 45 -3 51 -20 51 -11 0 -23 -6 -26 -14z"/>
<path d="M2286 1408 c-10 -38 -7 -48 15 -48 17 0 20 5 17 32 -4 38 -23 48 -32
16z"/>
<path d="M2890 1379 c0 -43 3 -50 18 -47 22 4 30 77 10 89 -24 16 -28 9 -28
-42z"/>
</g>
</svg>
